<?xml version="1.0" encoding="UTF-8" standalone="no"?>
<svg
   xmlns:dc="http://purl.org/dc/elements/1.1/"
   xmlns:cc="http://creativecommons.org/ns#"
   xmlns:rdf="http://www.w3.org/1999/02/22-rdf-syntax-ns#"
   xmlns:svg="http://www.w3.org/2000/svg"
   xmlns="http://www.w3.org/2000/svg"
   width="1675.9707"
   height="190.94615"
   viewBox="0 0 443.43392 50.521169"
   version="1.1"
   id="svg8">
  <defs
     id="defs2" />
  <metadata
     id="metadata5">
    <rdf:RDF>
      <cc:Work
         rdf:about="">
        <dc:format>image/svg+xml</dc:format>
        <dc:type
           rdf:resource="http://purl.org/dc/dcmitype/StillImage" />
        <dc:title></dc:title>
      </cc:Work>
    </rdf:RDF>
  </metadata>
  <g
     id="layer1"
     transform="translate(-39.668509,-315.88817)">
    <g
       id="Layer-1"
       data-name="Capa 1"
       transform="matrix(1.1592307,0,0,1.0406544,-93.338955,-156.18513)">
      <path
         transform="matrix(1,0,0,-1,0,792)"
         d="m 138.9773,338.3688 c -13.3452,0 -24.2396,-10.9057 -24.2396,-24.2739 0,-13.3679 10.8944,-24.2736 24.2396,-24.2736 13.3455,0 24.2399,10.9057 24.2399,24.2736 0,13.3682 -10.8944,24.2739 -24.2399,24.2739 z m 0,-46.8453 c -12.3922,0 -22.4694,10.0885 -22.4694,22.5034 0,12.4149 10.0772,22.5034 22.4694,22.5034 12.3922,0 22.4694,-10.0885 22.4694,-22.5034 0,-12.4149 -10.0772,-22.5034 -22.4694,-22.5034 z m 31.3892,-1.7022 v 48.5475 h -1.7022 v -48.5475 z m 37.1766,48.5475 h -2.5874 l -27.44,-22.9121 v 22.9121 h -1.7022 v -25.1589 -23.3886 h 1.7022 v 22.9801 l 27.44,-22.9801 h 2.5874 l -29.0061,24.3419 z m 29.6867,0 c -13.3452,0 -24.2396,-10.9057 -24.2396,-24.2739 0,-13.3679 10.8944,-24.2736 24.2396,-24.2736 13.3455,0 24.2399,10.9057 24.2399,24.2736 0,13.3682 -10.8944,24.2739 -24.2399,24.2739 z m 0,-46.8453 c -12.3922,0 -22.4694,10.0885 -22.4694,22.5034 0,12.4149 10.0772,22.5034 22.4694,22.5034 12.3922,0 22.4694,-10.0885 22.4694,-22.5034 0,-12.4149 -10.0772,-22.5034 -22.4694,-22.5034 z m 95.3246,46.8453 c -13.3452,0 -24.2396,-10.9057 -24.2396,-24.2739 0,-13.3679 10.8944,-24.2736 24.2396,-24.2736 13.3455,0 24.2399,10.9057 24.2399,24.2736 0,13.3682 -10.8944,24.2739 -24.2399,24.2739 z m 0,-46.8453 c -12.3922,0 -22.4694,10.0885 -22.4694,22.5034 0,12.4149 10.0772,22.5034 22.4694,22.5034 12.3922,0 22.4694,-10.0885 22.4694,-22.5034 0,-12.4149 -10.0772,-22.5034 -22.4694,-22.5034 z m 74.0129,46.8453 -21.4481,-22.5034 -21.4481,22.5034 h -1.4297 v -48.5475 h 1.7022 v 45.8807 l 21.1756,-22.2197 21.1757,22.2197 v -45.8807 h 1.7025 v 48.5475 z m 31.1167,0 c -13.3452,0 -24.2396,-10.9057 -24.2396,-24.2739 0,-13.3679 10.8944,-24.2736 24.2396,-24.2736 13.3455,0 24.2399,10.9057 24.2399,24.2736 0,13.3682 -10.8944,24.2739 -24.2399,24.2739 z m 0,-46.8453 c -12.3922,0 -22.4694,10.0885 -22.4694,22.5034 0,12.4149 10.0772,22.5034 22.4694,22.5034 12.3923,0 22.4694,-10.0885 22.4694,-22.5034 0,-12.4149 -10.0771,-22.5034 -22.4694,-22.5034 z m 46.5049,23.7631 h -3.8128 c -6.2643,0 -11.3029,4.7775 -11.3029,10.724 0,5.9465 5.0386,10.724 11.3029,10.724 h 3.8128 c 3.8812,0 7.3537,-1.9065 9.3963,-4.7775 l 1.3618,1.0214 c -2.3151,3.2794 -6.264,5.3903 -10.69,5.3903 h -3.8809 c -7.1493,0 -12.9371,-5.5947 -12.9371,-12.4262 0,-6.8318 5.8558,-12.4263 13.0051,-12.4263 h 3.8129 c 6.1282,0 11.3028,-5.1749 11.3028,-11.3028 0,-5.9239 -5.0385,-10.69 -11.3028,-10.69 h -4.1533 c -3.2684,0 -6.196,1.5661 -8.1706,4.0853 l -1.3618,-1.0214 c 2.1787,-2.7915 5.4471,-4.6301 9.1239,-4.7661 h 4.5618 c 7.1495,0 13.005,5.5834 13.005,12.3922 0,7.0132 -5.9235,12.937 -13.005,12.937 z"
         fill="#58595b"
         id="path1857" />
      <path
         transform="matrix(1,0,0,-1,0,792)"
         d="m 301.1655,338.3688 v -45.4042 l -32.8189,45.4042 h -1.4979 v -48.5475 h 1.7022 v 45.4039 l 32.819,-45.4039 h 1.4978 v 48.5475 z"
         fill="#77b516"
         id="path1859" />
    </g>
  </g>
</svg>
