<?xml version="1.0" encoding="UTF-8" standalone="no"?>
<svg
   xmlns:dc="http://purl.org/dc/elements/1.1/"
   xmlns:cc="http://creativecommons.org/ns#"
   xmlns:rdf="http://www.w3.org/1999/02/22-rdf-syntax-ns#"
   xmlns:svg="http://www.w3.org/2000/svg"
   xmlns="http://www.w3.org/2000/svg"
   width="1675.9707"
   height="292.23975"
   viewBox="0 0 443.43392 77.321766"
   version="1.1"
   id="svg8">
  <defs
     id="defs2" />
  <metadata
     id="metadata5">
    <rdf:RDF>
      <cc:Work
         rdf:about="">
        <dc:format>image/svg+xml</dc:format>
        <dc:type
           rdf:resource="http://purl.org/dc/dcmitype/StillImage" />
        <dc:title></dc:title>
      </cc:Work>
    </rdf:RDF>
  </metadata>
  <g
     id="layer1"
     transform="translate(-39.668509,-315.88817)">
    <g
       id="Layer-1"
       data-name="Capa 1"
       transform="matrix(1.1592307,0,0,1.0406544,-93.338955,-156.18513)">
      <path
         transform="matrix(1,0,0,-1,0,792)"
         d="m 138.9773,338.3688 c -13.3452,0 -24.2396,-10.9057 -24.2396,-24.2739 0,-13.3679 10.8944,-24.2736 24.2396,-24.2736 13.3455,0 24.2399,10.9057 24.2399,24.2736 0,13.3682 -10.8944,24.2739 -24.2399,24.2739 z m 0,-46.8453 c -12.3922,0 -22.4694,10.0885 -22.4694,22.5034 0,12.4149 10.0772,22.5034 22.4694,22.5034 12.3922,0 22.4694,-10.0885 22.4694,-22.5034 0,-12.4149 -10.0772,-22.5034 -22.4694,-22.5034 z m 31.3892,-1.7022 v 48.5475 h -1.7022 v -48.5475 z m 37.1766,48.5475 h -2.5874 l -27.44,-22.9121 v 22.9121 h -1.7022 v -25.1589 -23.3886 h 1.7022 v 22.9801 l 27.44,-22.9801 h 2.5874 l -29.0061,24.3419 z m 29.6867,0 c -13.3452,0 -24.2396,-10.9057 -24.2396,-24.2739 0,-13.3679 10.8944,-24.2736 24.2396,-24.2736 13.3455,0 24.2399,10.9057 24.2399,24.2736 0,13.3682 -10.8944,24.2739 -24.2399,24.2739 z m 0,-46.8453 c -12.3922,0 -22.4694,10.0885 -22.4694,22.5034 0,12.4149 10.0772,22.5034 22.4694,22.5034 12.3922,0 22.4694,-10.0885 22.4694,-22.5034 0,-12.4149 -10.0772,-22.5034 -22.4694,-22.5034 z m 95.3246,46.8453 c -13.3452,0 -24.2396,-10.9057 -24.2396,-24.2739 0,-13.3679 10.8944,-24.2736 24.2396,-24.2736 13.3455,0 24.2399,10.9057 24.2399,24.2736 0,13.3682 -10.8944,24.2739 -24.2399,24.2739 z m 0,-46.8453 c -12.3922,0 -22.4694,10.0885 -22.4694,22.5034 0,12.4149 10.0772,22.5034 22.4694,22.5034 12.3922,0 22.4694,-10.0885 22.4694,-22.5034 0,-12.4149 -10.0772,-22.5034 -22.4694,-22.5034 z m 74.0129,46.8453 -21.4481,-22.5034 -21.4481,22.5034 h -1.4297 v -48.5475 h 1.7022 v 45.8807 l 21.1756,-22.2197 21.1757,22.2197 v -45.8807 h 1.7025 v 48.5475 z m 31.1167,0 c -13.3452,0 -24.2396,-10.9057 -24.2396,-24.2739 0,-13.3679 10.8944,-24.2736 24.2396,-24.2736 13.3455,0 24.2399,10.9057 24.2399,24.2736 0,13.3682 -10.8944,24.2739 -24.2399,24.2739 z m 0,-46.8453 c -12.3922,0 -22.4694,10.0885 -22.4694,22.5034 0,12.4149 10.0772,22.5034 22.4694,22.5034 12.3923,0 22.4694,-10.0885 22.4694,-22.5034 0,-12.4149 -10.0771,-22.5034 -22.4694,-22.5034 z m 46.5049,23.7631 h -3.8128 c -6.2643,0 -11.3029,4.7775 -11.3029,10.724 0,5.9465 5.0386,10.724 11.3029,10.724 h 3.8128 c 3.8812,0 7.3537,-1.9065 9.3963,-4.7775 l 1.3618,1.0214 c -2.3151,3.2794 -6.264,5.3903 -10.69,5.3903 h -3.8809 c -7.1493,0 -12.9371,-5.5947 -12.9371,-12.4262 0,-6.8318 5.8558,-12.4263 13.0051,-12.4263 h 3.8129 c 6.1282,0 11.3028,-5.1749 11.3028,-11.3028 0,-5.9239 -5.0385,-10.69 -11.3028,-10.69 h -4.1533 c -3.2684,0 -6.196,1.5661 -8.1706,4.0853 l -1.3618,-1.0214 c 2.1787,-2.7915 5.4471,-4.6301 9.1239,-4.7661 h 4.5618 c 7.1495,0 13.005,5.5834 13.005,12.3922 0,7.0132 -5.9235,12.937 -13.005,12.937 z"
         fill="#58595b"
         id="path1857" />
      <path
         transform="matrix(1,0,0,-1,0,792)"
         d="m 301.1655,338.3688 v -45.4042 l -32.8189,45.4042 h -1.4979 v -48.5475 h 1.7022 v 45.4039 l 32.819,-45.4039 h 1.4978 v 48.5475 z"
         fill="#77b516"
         id="path1859" />
      <path
         transform="matrix(1,0,0,-1,0,792)"
         d="m 143.1275,271.3249 h -1.0896 c -1.7898,0 -3.2298,1.3621 -3.2298,3.0546 0,1.6929 1.44,3.0546 3.2298,3.0546 h 1.0896 c 1.1089,0 2.1013,-0.5448 2.685,-1.3617 l 0.3892,0.2917 c -0.6616,0.934 -1.7901,1.5372 -3.0546,1.5372 h -1.1092 c -2.043,0 -3.6967,-1.5956 -3.6967,-3.541 0,-1.9457 1.6733,-3.5414 3.7162,-3.5414 h 1.0897 c 1.7509,0 3.2298,-1.472 3.2298,-3.2198 0,-1.6895 -1.44,-3.045 -3.2298,-3.045 h -1.1869 c -0.934,0 -1.7705,0.4442 -2.3349,1.1642 l -0.3889,-0.292 c 0.6225,-0.7943 1.5565,-1.3198 2.607,-1.3586 h 1.3037 c 2.0429,0 3.7162,1.5922 3.7162,3.5314 0,1.9975 -1.6929,3.687 -3.7162,3.687 z m 18.1284,6.6152 c -3.8134,0 -6.9265,-3.1164 -6.9265,-6.9364 0,-3.8196 3.1131,-6.936 6.9265,-6.936 3.8135,0 6.9265,3.1164 6.9265,6.936 0,3.82 -3.113,6.9364 -6.9265,6.9364 z m 0,-13.386 c -3.541,0 -6.4208,2.8828 -6.4208,6.4304 0,3.5475 2.8798,6.4304 6.4208,6.4304 3.541,0 6.4205,-2.8829 6.4205,-6.4304 0,-3.5476 -2.8795,-6.4304 -6.4205,-6.4304 z m 14.8788,0 v 13.386 h -0.4862 v -13.8724 h 7.0237 v 0.4864 z m 24.1016,13.386 h -0.4865 v -9.1834 c 0,-2.3153 -2.0429,-4.2026 -4.553,-4.2026 -2.5098,0 -4.5527,1.8677 -4.5527,4.1831 v 9.2029 h -0.4864 v -9.2029 c 0,-2.5682 2.2569,-4.6695 5.0391,-4.6695 2.7825,0 5.0395,2.1013 5.0395,4.6695 z m 14.1786,-0.4668 c 1.3617,0 2.6654,-0.4476 3.755,-1.3037 l 0.0972,-0.0779 v 0.6032 c -1.1284,0.8172 -2.4514,1.2452 -3.833,1.2452 -3.6966,0 -6.7124,-3.1164 -6.7124,-6.9364 0,-3.8196 3.0158,-6.936 6.7124,-6.936 1.3816,0 2.7241,0.4475 3.8526,1.2452 v 0.6032 c -1.0896,-0.8756 -2.4321,-1.362 -3.833,-1.362 -3.4438,0 -6.2456,2.9021 -6.2456,6.4692 0,3.5671 2.8018,6.4692 6.2456,6.4692 z m 11.7853,-13.4056 v 13.8724 h -0.4862 v -13.8724 z m 14.3929,13.8724 c -3.8134,0 -6.9265,-3.1164 -6.9265,-6.9364 0,-3.8196 3.1131,-6.936 6.9265,-6.936 3.8135,0 6.9265,3.1164 6.9265,6.936 0,3.82 -3.113,6.9364 -6.9265,6.9364 z m 0,-13.386 c -3.541,0 -6.4208,2.8828 -6.4208,6.4304 0,3.5475 2.8798,6.4304 6.4208,6.4304 3.541,0 6.4205,-2.8829 6.4205,-6.4304 0,-3.5476 -2.8795,-6.4304 -6.4205,-6.4304 z m 24.179,13.386 V 264.966 l -9.3779,12.9741 h -0.428 v -13.8724 h 0.4864 v 12.9741 l 9.3779,-12.9741 h 0.428 v 13.8724 z m 8.439,-13.386 v 6.3232 h 5.8371 v 0.4864 h -5.8371 v 6.09 h 7.7048 v 0.4864 h -8.191 v -13.8724 h 8.2106 v 0.4864 z m 19.9961,6.7904 h -1.0896 c -1.7898,0 -3.2298,1.3651 -3.2298,3.0642 0,1.6991 1.44,3.0646 3.2298,3.0646 h 1.0896 c 1.109,0 2.1014,-0.5449 2.685,-1.3655 l 0.3892,0.292 c -0.6616,0.9371 -1.7901,1.5403 -3.0546,1.5403 h -1.1092 c -2.0429,0 -3.6967,-1.5987 -3.6967,-3.5509 0,-1.952 1.6733,-3.5507 3.7163,-3.5507 h 1.0896 c 1.751,0 3.2298,-1.4786 3.2298,-3.2298 0,-1.6926 -1.44,-3.0546 -3.2298,-3.0546 h -1.1869 c -0.934,0 -1.7705,0.4476 -2.3349,1.1673 l -0.3889,-0.2917 c 0.6225,-0.7977 1.5565,-1.3232 2.607,-1.362 h 1.3037 c 2.0429,0 3.7162,1.5953 3.7162,3.541 0,2.0041 -1.6928,3.6967 -3.7162,3.6967 z m 25.0546,6.1092 v 0.4864 h -8.0937 v -13.8724 h 0.4861 v 6.8292 h 5.2923 v 0.4864 h -5.2923 v 6.09 z m 7.9523,-13.386 v 13.8724 h -0.4861 v -13.8724 z m 17.2528,13.8724 V 264.966 l -9.3778,12.9741 h -0.4281 v -13.8724 h 0.4865 v 12.9741 l 9.3778,-12.9741 h 0.4281 v 13.8724 z m 14.1982,-0.0779 -0.0388,0.0779 h -0.4281 l -5.7784,-13.8724 h 0.5253 l 2.0429,4.9419 h 6.8292 l 2.043,-4.9419 h 0.5252 z m -3.4826,-8.3662 3.2102,7.7049 3.2105,-7.7049 z m 26.475,8.4441 V 264.966 l -9.3779,12.9741 h -0.428 v -13.8724 h 0.4864 v 12.9741 l 9.3779,-12.9741 h 0.428 v 13.8724 z m 14.6653,-0.4668 c 1.3618,0 2.6654,-0.4476 3.7551,-1.3037 l 0.0972,-0.0779 v 0.6032 c -1.1285,0.8172 -2.4514,1.2452 -3.833,1.2452 -3.6967,0 -6.7125,-3.1164 -6.7125,-6.9364 0,-3.8196 3.0158,-6.936 6.7125,-6.936 1.3816,0 2.7241,0.4475 3.8525,1.2452 v 0.6032 c -1.0896,-0.8756 -2.4321,-1.362 -3.833,-1.362 -3.4438,0 -6.2455,2.9021 -6.2455,6.4692 0,3.5671 2.8017,6.4692 6.2455,6.4692 z m 11.7853,-13.4056 v 13.8724 h -0.4861 v -13.8724 z m 7.9526,0.4864 v 6.3232 h 5.8371 v 0.4864 h -5.8371 v 6.09 h 7.7049 v 0.4864 h -8.191 v -13.8724 h 8.2105 v 0.4864 z m 17.4864,5.9148 h 1.2452 c 2.1402,0.0195 3.8719,1.6925 3.8719,3.7162 0,2.0233 -1.7317,3.6966 -3.8719,3.7162 h -1.1284 -2.4126 v -13.8336 h 0.4861 v 6.3816 h 1.2065 l 5.6228,-6.3816 h 0.642 z m -1.0508,0.4668 h -0.7393 v 6.4792 h 3.0158 c 1.8873,0 3.4242,-1.4593 3.4242,-3.2494 0,-1.7705 -1.5173,-3.2298 -3.3854,-3.2491 h -2.2958 z m 20.4046,6.9265 -0.0388,0.0779 h -0.4281 l -5.7784,-13.8724 h 0.5253 l 2.0429,4.9419 h 6.8292 l 2.043,-4.9419 h 0.5252 z m -3.4826,-8.3662 3.2102,7.7049 3.2105,-7.7049 z m 21.4942,1.8485 h -1.0896 c -1.7898,0 -3.2298,1.3651 -3.2298,3.0642 0,1.6991 1.44,3.0646 3.2298,3.0646 h 1.0896 c 1.1089,0 2.1014,-0.5449 2.685,-1.3655 l 0.3892,0.292 c -0.6616,0.9371 -1.7901,1.5403 -3.0546,1.5403 h -1.1092 c -2.0429,0 -3.6967,-1.5987 -3.6967,-3.5509 0,-1.952 1.6733,-3.5507 3.7163,-3.5507 h 1.0896 c 1.751,0 3.2298,-1.4786 3.2298,-3.2298 0,-1.6926 -1.44,-3.0546 -3.2298,-3.0546 h -1.1869 c -0.934,0 -1.7705,0.4476 -2.3349,1.1673 l -0.3889,-0.2917 c 0.6225,-0.7977 1.5565,-1.3232 2.607,-1.362 h 1.3037 c 2.0429,0 3.7162,1.5953 3.7162,3.541 0,2.0041 -1.6928,3.6967 -3.7162,3.6967 z"
         fill="#231f20"
         id="path1861" />
    </g>
  </g>
</svg>
