<?xml version="1.0" encoding="UTF-8" standalone="no"?>
<svg
   xmlns:dc="http://purl.org/dc/elements/1.1/"
   xmlns:cc="http://creativecommons.org/ns#"
   xmlns:rdf="http://www.w3.org/1999/02/22-rdf-syntax-ns#"
   xmlns:svg="http://www.w3.org/2000/svg"
   xmlns="http://www.w3.org/2000/svg"
   xmlns:sodipodi="http://sodipodi.sourceforge.net/DTD/sodipodi-0.dtd"
   xmlns:inkscape="http://www.inkscape.org/namespaces/inkscape"
   width="1469.0958"
   height="54.562675"
   viewBox="0 0 388.69827 14.436375"
   version="1.1"
   id="svg8"
   sodipodi:docname="logotipo_only_logotipo.svg"
   inkscape:version="1.0.1 (3bc2e813f5, 2020-09-07)">
  <defs
     id="defs2" />
  <sodipodi:namedview
     id="base"
     pagecolor="#ffffff"
     bordercolor="#666666"
     borderopacity="1.0"
     inkscape:pageopacity="0.0"
     inkscape:pageshadow="2"
     inkscape:zoom="0.35"
     inkscape:cx="1214.4945"
     inkscape:cy="-84.805337"
     inkscape:document-units="mm"
     inkscape:current-layer="Layer-1"
     inkscape:document-rotation="0"
     showgrid="false"
     fit-margin-top="0"
     fit-margin-left="0"
     fit-margin-right="0"
     fit-margin-bottom="0"
     inkscape:window-width="1366"
     inkscape:window-height="705"
     inkscape:window-x="-8"
     inkscape:window-y="-8"
     inkscape:window-maximized="1"
     units="px" />
  <metadata
     id="metadata5">
    <rdf:RDF>
      <cc:Work
         rdf:about="">
        <dc:format>image/svg+xml</dc:format>
        <dc:type
           rdf:resource="http://purl.org/dc/dcmitype/StillImage" />
        <dc:title></dc:title>
      </cc:Work>
    </rdf:RDF>
  </metadata>
  <g
     inkscape:label="Capa 1"
     inkscape:groupmode="layer"
     id="layer1"
     transform="translate(-59.253886,-320.76522)">
    <g
       id="Layer-1"
       data-name="Capa 1"
       transform="matrix(1.1592307,0,0,1.0406544,-93.338955,-156.18513)">
      <path
         d="m 136.41915,464.93292 h -1.0896 c -1.7898,0 -3.2298,-1.3621 -3.2298,-3.0546 0,-1.6929 1.44,-3.0546 3.2298,-3.0546 h 1.0896 c 1.1089,0 2.1013,0.5448 2.685,1.3617 l 0.3892,-0.2917 c -0.6616,-0.934 -1.7901,-1.5372 -3.0546,-1.5372 h -1.1092 c -2.043,0 -3.6967,1.5956 -3.6967,3.541 0,1.9457 1.6733,3.5414 3.7162,3.5414 h 1.0897 c 1.7509,0 3.2298,1.472 3.2298,3.2198 0,1.6895 -1.44,3.045 -3.2298,3.045 h -1.1869 c -0.934,0 -1.7705,-0.4442 -2.3349,-1.1642 l -0.3889,0.292 c 0.6225,0.7943 1.5565,1.3198 2.607,1.3586 h 1.3037 c 2.0429,0 3.7162,-1.5922 3.7162,-3.5314 0,-1.9975 -1.6929,-3.687 -3.7162,-3.687 z m 18.1284,-6.6152 c -3.8134,0 -6.9265,3.1164 -6.9265,6.9364 0,3.8196 3.1131,6.936 6.9265,6.936 3.8135,0 6.9265,-3.1164 6.9265,-6.936 0,-3.82 -3.113,-6.9364 -6.9265,-6.9364 z m 0,13.386 c -3.541,0 -6.4208,-2.8828 -6.4208,-6.4304 0,-3.5475 2.8798,-6.4304 6.4208,-6.4304 3.541,0 6.4205,2.8829 6.4205,6.4304 0,3.5476 -2.8795,6.4304 -6.4205,6.4304 z m 14.8788,0 v -13.386 h -0.4862 v 13.8724 h 7.0237 v -0.4864 z m 24.1016,-13.386 h -0.4865 v 9.1834 c 0,2.3153 -2.0429,4.2026 -4.553,4.2026 -2.5098,0 -4.5527,-1.8677 -4.5527,-4.1831 v -9.2029 h -0.4864 v 9.2029 c 0,2.5682 2.2569,4.6695 5.0391,4.6695 2.7825,0 5.0395,-2.1013 5.0395,-4.6695 z m 14.1786,0.4668 c 1.3617,0 2.6654,0.4476 3.755,1.3037 l 0.0972,0.0779 v -0.6032 c -1.1284,-0.8172 -2.4514,-1.2452 -3.833,-1.2452 -3.6966,0 -6.7124,3.1164 -6.7124,6.9364 0,3.8196 3.0158,6.936 6.7124,6.936 1.3816,0 2.7241,-0.4475 3.8526,-1.2452 v -0.6032 c -1.0896,0.8756 -2.4321,1.362 -3.833,1.362 -3.4438,0 -6.2456,-2.9021 -6.2456,-6.4692 0,-3.5671 2.8018,-6.4692 6.2456,-6.4692 z m 11.7853,13.4056 v -13.8724 h -0.4862 v 13.8724 z m 14.3929,-13.8724 c -3.8134,0 -6.9265,3.1164 -6.9265,6.9364 0,3.8196 3.1131,6.936 6.9265,6.936 3.8135,0 6.9265,-3.1164 6.9265,-6.936 0,-3.82 -3.113,-6.9364 -6.9265,-6.9364 z m 0,13.386 c -3.541,0 -6.4208,-2.8828 -6.4208,-6.4304 0,-3.5475 2.8798,-6.4304 6.4208,-6.4304 3.541,0 6.4205,2.8829 6.4205,6.4304 0,3.5476 -2.8795,6.4304 -6.4205,6.4304 z m 24.179,-13.386 v 12.9741 l -9.3779,-12.9741 h -0.428 v 13.8724 h 0.4864 v -12.9741 l 9.3779,12.9741 h 0.428 v -13.8724 z m 8.439,13.386 v -6.3232 h 5.8371 v -0.4864 h -5.8371 v -6.09 h 7.7048 v -0.4864 h -8.191 v 13.8724 h 8.2106 v -0.4864 z m 19.9961,-6.7904 h -1.0896 c -1.7898,0 -3.2298,-1.3651 -3.2298,-3.0642 0,-1.6991 1.44,-3.0646 3.2298,-3.0646 h 1.0896 c 1.109,0 2.1014,0.5449 2.685,1.3655 l 0.3892,-0.292 c -0.6616,-0.9371 -1.7901,-1.5403 -3.0546,-1.5403 h -1.1092 c -2.0429,0 -3.6967,1.5987 -3.6967,3.5509 0,1.952 1.6733,3.5507 3.7163,3.5507 h 1.0896 c 1.751,0 3.2298,1.4786 3.2298,3.2298 0,1.6926 -1.44,3.0546 -3.2298,3.0546 h -1.1869 c -0.934,0 -1.7705,-0.4476 -2.3349,-1.1673 l -0.3889,0.2917 c 0.6225,0.7977 1.5565,1.3232 2.607,1.362 h 1.3037 c 2.0429,0 3.7162,-1.5953 3.7162,-3.541 0,-2.0041 -1.6928,-3.6967 -3.7162,-3.6967 z m 25.0546,-6.1092 v -0.4864 h -8.0937 v 13.8724 h 0.4861 v -6.8292 h 5.2923 v -0.4864 h -5.2923 v -6.09 z m 7.9523,13.386 v -13.8724 h -0.4861 v 13.8724 z m 17.2528,-13.8724 v 12.9741 l -9.3778,-12.9741 h -0.4281 v 13.8724 h 0.4865 v -12.9741 l 9.3778,12.9741 h 0.4281 v -13.8724 z m 14.1982,0.0779 -0.0388,-0.0779 h -0.4281 l -5.7784,13.8724 h 0.5253 l 2.0429,-4.9419 h 6.8292 l 2.043,4.9419 h 0.5252 z m -3.4826,8.3662 3.2102,-7.7049 3.2105,7.7049 z m 26.47501,-8.4441 v 12.9741 l -9.3779,-12.9741 h -0.42802 v 13.8724 h 0.48641 v -12.9741 l 9.37789,12.9741 h 0.428 v -13.8724 z m 14.66529,0.4668 c 1.3618,0 2.66539,0.4476 3.75511,1.3037 l 0.0972,0.0779 v -0.6032 c -1.12849,-0.8172 -2.45139,-1.2452 -3.83298,-1.2452 -3.69672,0 -6.7125,3.1164 -6.7125,6.9364 0,3.8196 3.01578,6.936 6.7125,6.936 1.38159,0 2.7241,-0.4475 3.85249,-1.2452 v -0.6032 c -1.08959,0.8756 -2.4321,1.362 -3.833,1.362 -3.4438,0 -6.2455,-2.9021 -6.2455,-6.4692 0,-3.5671 2.8017,-6.4692 6.2455,-6.4692 z m 11.78531,13.4056 v -13.8724 h -0.4861 v 13.8724 z m 7.95258,-0.4864 v -6.3232 h 5.83712 v -0.4864 h -5.83712 v -6.09 h 7.70492 v -0.4864 h -8.191 v 13.8724 h 8.21049 v -0.4864 z m 17.48642,-5.9148 h 1.24519 c 2.14021,-0.0195 3.87189,-1.6925 3.87189,-3.7162 0,-2.0233 -1.73168,-3.6966 -3.87189,-3.7162 h -1.1284 -2.41259 v 13.8336 h 0.4861 v -6.3816 h 1.20648 l 5.62282,6.3816 h 0.64199 z m -1.0508,-0.4668 h -0.73932 v -6.4792 h 3.01581 c 1.8873,0 3.4242,1.4593 3.4242,3.2494 0,1.7705 -1.51729,3.2298 -3.38539,3.2491 h -2.29581 z m 20.40458,-6.9265 -0.0388,-0.0779 h -0.42809 l -5.7784,13.8724 h 0.52529 l 2.04291,-4.9419 h 6.82921 l 2.043,4.9419 h 0.52518 z m -3.48258,8.3662 3.2102,-7.7049 3.2105,7.7049 z m 21.4942,-1.8485 h -1.08962 c -1.78979,0 -3.22978,-1.3651 -3.22978,-3.0642 0,-1.6991 1.43999,-3.0646 3.22978,-3.0646 h 1.08962 c 1.10888,0 2.10139,0.5449 2.685,1.3655 l 0.38919,-0.292 c -0.6616,-0.9371 -1.79011,-1.5403 -3.05461,-1.5403 h -1.1092 c -2.04289,0 -3.6967,1.5987 -3.6967,3.5509 0,1.952 1.6733,3.5507 3.71631,3.5507 h 1.08959 c 1.75102,0 3.22981,1.4786 3.22981,3.2298 0,1.6926 -1.43999,3.0546 -3.22981,3.0546 h -1.18689 c -0.93401,0 -1.77051,-0.4476 -2.3349,-1.1673 l -0.3889,0.2917 c 0.6225,0.7977 1.55651,1.3232 2.60701,1.362 h 1.30368 c 2.04292,0 3.71621,-1.5953 3.71621,-3.541 0,-2.0041 -1.69281,-3.6967 -3.71621,-3.6967 z"
         fill="#231f20"
         id="path1861"
         style="stroke-width:1" />
    </g>
  </g>
</svg>
